<svg xmlns="http://www.w3.org/2000/svg" xmlns:xlink="http://www.w3.org/1999/xlink" width="149.246" height="82.681" viewBox="0 0 149.246 82.681"><defs><clipPath id="a"><rect width="149.246" height="82.681" fill="none"/></clipPath></defs><g clip-path="url(#a)"><path d="M0,1.047Q.143,20.778.285,40.509c16.478-5.55,30.927-.276,45.079,6.587l4.81-31.671C34.447,5.3,18.382-3,0,1.047" transform="translate(0 0)" fill="#fff"/><path d="M18.631,32.453q.6-.467,1.2-.914.516.333,1.029.678Q20.633,31.609,20.4,31q.551-.436,1.1-.856-.577.026-1.158.068l-.107.008q-.186-.569-.372-1.138-.206.6-.411,1.2-.7.065-1.4.153.547.33,1.089.672-.258.668-.515,1.341M24.2,24.911q-.22.641-.439,1.286-.633-.011-1.271,0,.493.355.983.72l.089.064q-.258.615-.514,1.235.532-.377,1.063-.74.532.4,1.059.818-.177-.642-.354-1.284.55-.367,1.1-.719-.624-.041-1.25-.065-.231-.656-.464-1.311m.7-6.482q-.236-.66-.475-1.319-.225.633-.448,1.269-.646-.028-1.3-.038.548.4,1.092.813-.263.61-.525,1.225.543-.367,1.086-.717.544.419,1.083.848-.181-.647-.363-1.3.561-.351,1.12-.686-.637-.059-1.276-.1m3.7,4.252q-.167-.637-.334-1.274-.217.587-.433,1.177-.691-.082-1.386-.143.527.431,1.048.872-.221.609-.441,1.222.556-.336,1.111-.657.525.452,1.045.913-.168-.654-.337-1.309.551-.306,1.1-.6-.685-.112-1.373-.2m-8.218-.363Q20.193,21.7,20,21.08q-.21.64-.418,1.284-.714.048-1.433.12.557.341,1.108.693-.263.666-.524,1.336.571-.422,1.141-.826l.086-.062q.529.346,1.053.7-.233-.616-.468-1.231.564-.42,1.127-.824-.646.013-1.3.044m12.674-2.652q-.164-.671-.329-1.341-.283.566-.566,1.138-.622-.136-1.246-.256.522.486,1.039.979-.275.564-.55,1.132.6-.264,1.209-.511.494.478.983.964-.2-.653-.406-1.307.555-.251,1.112-.487-.622-.162-1.246-.31M40.4,29.411q-.136-.644-.273-1.289-.229.516-.457,1.036-.655-.223-1.313-.432.49.532.974,1.068-.279.515-.556,1.036.585-.188,1.17-.361.482.538.96,1.08-.136-.654-.274-1.309.493-.2.987-.388-.558-.208-1.117-.407l-.1-.036m-5.857,4.024q.538-.256,1.075-.5.489.5.973,1.01-.144-.652-.29-1.3.533-.234,1.067-.455-.6-.174-1.205-.335l-.1-.027q-.146-.6-.294-1.192-.22.5-.439,1-.657-.165-1.316-.314.491.49.979.986-.226.562-.45,1.128M36.557,24.4q-.146-.644-.294-1.288-.225.536-.45,1.074-.671-.188-1.345-.36.5.5,1,1.016-.229.558-.458,1.12.549-.24,1.1-.466.5.523,1,1.051-.148-.662-.3-1.325.544-.213,1.09-.413-.667-.213-1.337-.41M26.763,32.26q.543-.352,1.087-.688.513.435,1.021.878-.164-.645-.329-1.289.539-.325,1.079-.635-.619-.084-1.24-.152l-.1-.011q-.166-.586-.333-1.173-.212.548-.423,1.1-.676-.061-1.355-.1.515.419,1.027.846-.216.613-.432,1.229m5.981-5.022-.1-.021q-.159-.666-.321-1.333-.278.577-.555,1.158-.609-.116-1.221-.217.511.468,1.017.945-.27.572-.54,1.147.592-.281,1.184-.547.482.46.961.926-.2-.644-.4-1.289.544-.268,1.089-.522-.557-.129-1.117-.247m7.963-6.4q-.233.508-.466,1.019-.669-.247-1.339-.48.5.55.992,1.1-.282.508-.563,1.02.6-.168,1.194-.321.493.558.982,1.121-.14-.661-.282-1.323.5-.181,1.008-.352-.622-.25-1.245-.489-.139-.649-.28-1.3M31.913,42.329l-.1-.014q-.155-.608-.311-1.215-.265.547-.53,1.1-.582-.076-1.166-.139.486.435.968.877-.261.633-.521,1.27.569-.368,1.138-.719.458.473.911.952-.183-.671-.368-1.343.52-.3,1.041-.592-.533-.092-1.067-.173m7.422,1.657-.094-.027q-.132-.588-.266-1.177-.219.487-.437.978-.624-.173-1.251-.333.464.493.925.991-.271.576-.54,1.159.564-.277,1.128-.539.456.547.908,1.1-.123-.683-.247-1.367.471-.234.943-.459-.533-.165-1.069-.322M44.44,27.265q-.183-.69-.367-1.382-.244.51-.486,1.023-.6-.247-1.2-.485.483.563.961,1.13-.276.477-.552.957.522-.151,1.045-.29.479.572.956,1.147-.131-.661-.263-1.323.54-.137,1.082-.262-.59-.263-1.181-.515M16.27,42.684l-.1.022q-.189-.551-.38-1.1-.2.633-.391,1.268-.688.157-1.381.337.539.26,1.073.531-.2.747-.393,1.5.539-.588,1.079-1.159.536.333,1.067.678-.188-.659-.377-1.318.535-.506,1.069-.995-.629.11-1.261.241m30.319,3.839-.092-.037q-.116-.584-.233-1.169-.228.446-.454.9-.613-.241-1.228-.472.443.53.883,1.062-.237.547-.472,1.1.521-.218,1.044-.424.438.583.873,1.167-.107-.677-.216-1.356.513-.155,1.027-.3-.565-.236-1.131-.464m9.1-22.613q.54-.071,1.082-.134.473.647.945,1.294-.112-.653-.225-1.308.558-.02,1.118-.032-.6-.369-1.195-.732-.169-.654-.339-1.311-.263.394-.524.791-.6-.361-1.2-.717.473.641.944,1.283-.3.431-.6.867m-1.85,25.833-.087-.042q-.149-.616-.3-1.233-.247.426-.492.856-.551-.26-1.1-.516.43.556.857,1.112-.283.47-.564.943.5-.155,1-.3l.842,1.2q-.091-.66-.183-1.323.516-.106,1.033-.2-.5-.246-1.008-.488M41.283,13.514q-.235.461-.469.925-.682-.271-1.366-.528.509.568,1.015,1.141-.291.542-.58,1.09.61-.194,1.221-.371.507.581,1.009,1.167-.144-.668-.29-1.337.514-.164,1.028-.318-.634-.273-1.27-.535-.149-.616-.3-1.233m-26.521-.522q.589-.54,1.176-1.061.59.332,1.173.679-.207-.631-.415-1.261.585-.457,1.169-.9-.744.055-1.493.136-.206-.569-.414-1.137-.215.616-.429,1.234-.752.1-1.509.219.59.305,1.174.625-.217.73-.432,1.463M44,20.267q-.284.507-.567,1.017.536-.174,1.074-.337.486.636.968,1.275-.13-.706-.26-1.412.55-.119,1.1-.227-.6-.286-1.2-.562-.193-.659-.387-1.318-.245.46-.489.924-.61-.27-1.221-.531.454.537.9,1.077l.079.095m-19.351-11q-.229.582-.457,1.167-.661-.045-1.325-.072.562.416,1.118.842-.268.647-.534,1.3.552-.4,1.1-.775.56.436,1.114.884-.185-.655-.372-1.309.574-.337,1.147-.658-.65-.077-1.3-.135-.244-.622-.491-1.242m7.131,4.418q.617-.293,1.235-.568.506.5,1.01,1-.207-.66-.416-1.32.568-.234,1.135-.454-.634-.183-1.27-.35-.172-.633-.346-1.267-.287.514-.573,1.033-.635-.156-1.274-.3.533.5,1.061,1.013-.282.6-.563,1.208M24.281,41.8l-.093,0q-.223-.594-.447-1.187-.21.6-.421,1.211-.6.023-1.212.063.513.358,1.021.726-.246.673-.492,1.35.508-.454,1.017-.893.506.423,1.008.856-.164-.677-.33-1.355.524-.4,1.049-.777-.548-.005-1.1,0M16.315,18.712q-.2-.609-.4-1.217-.208.665-.416,1.333-.737.111-1.478.249.577.293,1.15.6-.213.687-.423,1.378.577-.5,1.154-.989.574.318,1.143.65-.2-.626-.406-1.252.572-.468,1.144-.918-.73.071-1.464.168m3.064-3.59q-.269.7-.536,1.414.629-.49,1.258-.959.537.407,1.068.825-.235-.665-.47-1.328.575-.408,1.15-.8-.659,0-1.322.011-.194-.579-.39-1.157-.215.59-.428,1.184-.73.031-1.465.086.524.326,1.044.663l.091.06M16.217,34.709q-.194-.556-.389-1.111-.2.628-.4,1.26-.7.141-1.411.307.552.272,1.1.556-.2.7-.405,1.395.552-.527,1.1-1.036.549.294,1.093.6-.193-.616-.388-1.232.546-.493,1.093-.97-.7.1-1.4.23M35.944,17.267q-.236.594-.471,1.191.563-.268,1.127-.521.508.586,1.012,1.177-.148-.708-.3-1.417.556-.2,1.112-.381-.68-.236-1.364-.457-.155-.61-.31-1.22-.229.488-.455.978-.686-.212-1.375-.406.474.484.945.975l.079.08M20.1,38.128q-.181-.564-.364-1.128-.2.606-.4,1.215-.683.081-1.369.186.533.317,1.06.644-.252.721-.5,1.446.586-.529,1.171-1.039.507.322,1.009.654-.222-.6-.445-1.2.54-.45,1.081-.884-.617.045-1.238.107m7.691-22.65q-.226.646-.451,1.3.569-.367,1.139-.719.534.516,1.064,1.04-.17-.7-.342-1.4.563-.293,1.126-.57-.7-.134-1.4-.247-.174-.6-.35-1.2-.22.537-.44,1.078-.706-.1-1.417-.183.5.415.991.837l.081.069M54.35,41.8q-.251.419-.5.842-.563-.286-1.128-.566.443.579.882,1.156-.285.422-.569.848.508-.095,1.016-.182l.876,1.158q-.1-.63-.2-1.261.527-.084,1.057-.162-.56-.292-1.12-.58L54.35,41.8m-3.966,2.747q-.112-.583-.225-1.168-.233.426-.466.855-.616-.279-1.233-.55.444.557.883,1.115-.287.5-.572,1,.565-.158,1.132-.307.424.537.844,1.075-.146-.634-.292-1.269.524-.121,1.049-.233-.56-.264-1.12-.523M49.235,17.253q-.243.417-.485.837-.669-.346-1.34-.682.486.612.969,1.228-.252.516-.5,1.035.562-.134,1.125-.257.49.625.976,1.252-.128-.666-.257-1.333.557-.073,1.115-.136-.666-.362-1.335-.715-.132-.613-.264-1.228M27.958,38.046q-.161-.582-.324-1.164-.207.554-.414,1.112-.661-.041-1.326-.063.5.4,1,.814-.213.664-.425,1.331.531-.416,1.063-.816.5.422,1,.853-.159-.638-.32-1.277.528-.342,1.059-.67-.656-.07-1.315-.121M42.169,35.7q.512-.17,1.024-.331.468.55.932,1.1-.126-.65-.253-1.3.529-.159,1.059-.307-.531-.22-1.064-.432l-.089-.036q-.183-.638-.366-1.279-.237.474-.472.951-.583-.224-1.169-.438.471.545.94,1.1-.272.484-.542.973m-6.6,3.551q-.142-.59-.286-1.181-.216.508-.431,1.02-.642-.142-1.287-.268.479.471.955.947Q34.3,40.38,34.078,41q.527-.321,1.054-.629.479.488.954.981-.14-.645-.281-1.29.523-.253,1.047-.493-.638-.165-1.279-.316m7.543,2.28q-.178-.632-.356-1.265-.232.484-.464.971-.571-.2-1.144-.395.46.525.917,1.053-.269.533-.537,1.07.5-.232,1-.453.46.535.916,1.072-.122-.642-.245-1.286.52-.178,1.04-.346-.564-.215-1.13-.422m5.723-15.913-.1-.051q-.122-.644-.245-1.291-.242.464-.484.932-.656-.32-1.313-.629.477.591.95,1.186-.247.481-.491.966.55-.111,1.1-.211.477.6.949,1.2-.125-.66-.251-1.321.546-.091,1.093-.173-.6-.309-1.206-.61M39.823,36.684q-.137-.6-.274-1.191-.223.482-.445.966-.638-.2-1.279-.384.477.514.949,1.032-.273.524-.545,1.053.572-.208,1.145-.4.471.519.937,1.042-.132-.647-.266-1.295.484-.218.968-.425-.546-.187-1.093-.364l-.1-.031M51.771,24.1q-.3.472-.6.949.6-.091,1.209-.17.447.637.891,1.275-.154-.7-.311-1.4.555-.057,1.11-.1-.6-.339-1.193-.67-.124-.607-.249-1.214-.245.4-.489.807-.657-.36-1.316-.712.437.57.871,1.141l.077.1M24.427,34.012q-.228-.6-.458-1.2-.215.6-.43,1.2-.617.006-1.238.029.525.374,1.045.758-.252.622-.5,1.248.519-.393,1.038-.771.521.389,1.037.788-.172-.637-.346-1.273.538-.382,1.075-.749-.561-.022-1.126-.029h-.095m7.8.752q-.16-.613-.32-1.228-.271.538-.54,1.081-.6-.1-1.193-.178.5.453.993.914-.265.579-.529,1.163.579-.3,1.159-.584.472.444.94.9-.192-.638-.386-1.276.533-.287,1.067-.56-.545-.111-1.093-.21l-.1-.018m19.9-3.809-.1-.052q-.113-.637-.229-1.275-.245.449-.488.9-.644-.333-1.289-.658.466.6.929,1.2-.294.442-.587.889.588-.07,1.176-.13.442.576.881,1.153-.155-.655-.312-1.312.544-.077,1.089-.144-.535-.288-1.071-.57m-4.143,1.584q-.117-.638-.237-1.278-.238.473-.476.949-.643-.294-1.287-.577.466.573.929,1.147-.242.487-.483.979.538-.131,1.078-.25.465.579.927,1.16-.119-.649-.241-1.3.535-.115,1.071-.22-.59-.285-1.182-.562l-.1-.046m1.586,6.3q.575-.093,1.15-.174.431.556.86,1.112-.15-.643-.3-1.289.534-.1,1.069-.191-.524-.265-1.049-.524l-.094-.047q-.116-.59-.233-1.181-.237.416-.473.835-.63-.306-1.261-.6.455.579.906,1.16-.287.449-.574.9m6.9-9.085q-.157-.683-.316-1.37-.262.442-.523.888-.588-.336-1.179-.667.463.621.923,1.242-.294.4-.588.81.528-.054,1.057-.1l.918,1.245-.217-1.292q.547-.041,1.1-.075-.585-.343-1.171-.682m-1.218,5.3q-.259.451-.515.906-.578-.312-1.156-.618.453.6.9,1.2-.29.411-.578.827.517-.072,1.036-.136.45.6.9,1.2-.1-.637-.209-1.276.536-.063,1.075-.118-.573-.318-1.147-.632-.152-.675-.306-1.352M15.871,25.5q-.2.671-.407,1.344-.721.125-1.447.276.566.282,1.126.579-.208.691-.414,1.386.564-.514,1.129-1.01.561.3,1.118.623-.2-.619-.4-1.238.561-.483,1.12-.948-.714.088-1.434.2-.2-.606-.393-1.212M47.339,39.553l-.095-.041q-.12-.591-.241-1.183-.232.439-.461.881-.628-.267-1.257-.524.455.552.907,1.107-.238.5-.475,1,.527-.152,1.056-.294.454.56.9,1.12-.116-.643-.235-1.288.525-.136,1.05-.261-.577-.26-1.155-.512" transform="translate(-11.205 -7.412)" fill="#202020"/><path d="M51.471,76.945q-.347,2.283-.694,4.568c20.831,12.971,41.06,29.16,65.4,23.426l1.663-2.955C93.13,107.426,72.608,90.548,51.471,76.945m-49.726,47.6c36.081-15.016,61.912,24.639,97.993,9.623l1.662-2.955c-36.724,14.508-62.972-26.868-99.7-12.36q.02,2.846.041,5.692M1.827,135.8c22.938-10.557,43.306.684,63.6,5.671,10.113,2.486,19.158,4,31.027-1.459q.831-1.478,1.662-2.955c-35.451,15.512-60.877-22.46-96.328-6.948q.02,2.845.041,5.691M49.405,90.547c20.228,11.722,39.874,26.546,63.483,20.237l1.662-2.955c-23.977,6.018-43.918-9.5-64.451-21.85q-.347,2.284-.694,4.568M1.664,113.286c37.353-14.012,64.008,29.047,101.362,15.035q.831-1.479,1.663-2.957c-38,13.5-65.068-31.277-103.066-17.772q.02,2.848.041,5.694m46.369-13.7c19.624,10.473,38.689,23.933,61.567,17.048l1.662-2.956c-23.247,6.593-42.606-7.556-62.535-18.66l-.694,4.568m-1.372,9.035c19.021,9.224,37.5,21.318,59.651,13.859q.831-1.478,1.663-2.956c-22.517,7.168-41.294-5.617-60.62-15.473l-.694,4.57" transform="translate(-1.298 -61.52)" fill="#fff"/><path d="M233.515,172.431H152.786a1.057,1.057,0,0,1-1.053-1.053v-22a1.057,1.057,0,0,1,1.053-1.053h80.728a1.057,1.057,0,0,1,1.053,1.053v22a1.057,1.057,0,0,1-1.053,1.053" transform="translate(-121.316 -118.594)" fill="#202020"/><path d="M214.594,42.4H177.756a.718.718,0,0,1-.716-.716V19.013a.718.718,0,0,1,.716-.716h36.838a.718.718,0,0,1,.716.716V41.684a.718.718,0,0,1-.716.716" transform="translate(-141.55 -14.629)" fill="#202020"/><path d="M194.778,304.441h-33.73a.688.688,0,0,1-.686-.686V281.024a.688.688,0,0,1,.686-.686h33.73a.688.688,0,0,1,.686.686v22.731a.688.688,0,0,1-.686.686" transform="translate(-128.215 -224.14)" fill="#202020"/><path d="M133.63,19.774l.854-4.7h13.3l3.186,3.383.854,4.533-.591.394L149.5,22.3h-2.529l-.2.23v6.274a1.38,1.38,0,0,0,.559,1.248v.525a1.178,1.178,0,0,0-.559,1.248v8.015l1.183,1.708-.23.624h-6.635l-3.351-3.186-.23-.723,1.183-1.741V28.512c0-.92-.263-.985-.558-1.15v-.657l.23-.131c.329-.2.361-.624.329-1.051V22.7l-1.117.69-.559-.361Z" transform="translate(-106.842 -12.055)" fill="#202020"/><path d="M213.167,15.077h6.767l3.055,3.252v-.788L221.806,15.8l.23-.723H228.8l3.186,3.383.263.624-1.215,1.708v7.982a1.378,1.378,0,0,0,.559,1.281v.526a1.291,1.291,0,0,0-.559,1.314v7.949l1.215,1.708-.263.624h-6.6l-3.219-3.186v.854l1.215,1.708-.263.624h-6.6l-3.351-3.186-.23-.723,1.183-1.741V28.742c0-.394.1-.985-.328-1.248l-.23-.132v-.657l.23-.131c.427-.263.328-.821.328-1.248V17.541L212.937,15.8Zm9,8.836h.657l.164-.164V19.643l-.821,1.149Zm.821,7.391H222.4l-.23.23v6.209l.821-1.215Z" transform="translate(-170.251 -12.055)" fill="#202020"/><path d="M301.653,15.077h11.858L316.7,18.46l.854,4.533-.591.394L315.22,22.3h-4.336l-.23.23v1.183l1.084-.755.69.263,3.186,3.351v5.453l-.591.23-1.413-1.051h-2.726l-.23.23v3.515h1.478l1.807-1.117.69.46,3.186,3.351-.854,4.533H305.5l-3.351-3.186-.23-.657.69-1.774V28.742c0-.394.1-.985-.329-1.248l-.23-.131v-.657l.23-.131c.427-.263.329-.821.329-1.248V17.541L301.423,15.8Z" transform="translate(-240.998 -12.055)" fill="#202020"/><path d="M152.082,146.168l3.186,3.383.263.657-.985,1.248,2.431,2.891c-1.051.69-1.051,2.2-1.051,2.924v3.482L153,164.3h-6.307l-.23.23v6.406l1.215,1.708-.263.624h-6.6l-3.351-3.186-.23-.723,1.183-1.741v-7.785c0-.394.1-.985-.329-1.248l-.23-.131V157.8l.23-.131c.427-.263.329-.821.329-1.248v-7.785l-1.183-1.741.23-.723Zm-4.2,9.723v-2.5h-1.183l-.23.23v3.285h.559Z" transform="translate(-109.723 -116.867)" fill="#202020"/><path d="M225.784,146.168h11.858l3.186,3.383.854,4.533-.591.394-1.741-1.084h-4.336l-.23.23v1.183l1.084-.755.69.263,3.186,3.351v5.453l-.591.23-1.413-1.051h-2.726l-.23.23v3.515h1.478l1.807-1.117.69.46,3.186,3.351-.854,4.533H229.627l-3.351-3.186-.23-.657.69-1.774v-7.818c0-.394.1-.985-.329-1.248l-.23-.131V157.8l.23-.131c.427-.263.329-.821.329-1.248v-7.785l-1.183-1.741Z" transform="translate(-180.338 -116.867)" fill="#202020"/><path d="M312.009,146.168l3.186,3.383.263.657-.986,1.248,2.431,2.891a3.185,3.185,0,0,0-1.051,2.924V160.1a1.205,1.205,0,0,0,.559,1.051v.525a1.235,1.235,0,0,0-.559,1.15v2.726a3.963,3.963,0,0,0,1.051,2.924l-2.431,2.891.986,1.248-.263.657H302.089l-3.351-3.186-.263-.756.953-1.248L297,165.155l.46-.3c.657-.427.624-1.905.624-2.6v-2.989a.786.786,0,0,0-.329-.69l-.23-.131V157.8l.23-.132a.786.786,0,0,0,.329-.69v-2.989c0-.69.033-2.168-.624-2.6l-.46-.3,2.431-2.924-.953-1.248.263-.756Zm-4.2,7.227h-.723l-.953,1.084v5.749a1.085,1.085,0,0,0,.558.92v.525a.968.968,0,0,0-.558.92v3.449h.821l.854-1.018v-5.716a.866.866,0,0,0-.559-.854V157.8a.822.822,0,0,0,.559-.854Z" transform="translate(-237.46 -116.867)" fill="#202020"/><path d="M403.445,146.168l3.186,3.383.263.657-.985,1.248,2.431,2.891c-1.051.69-1.051,2.2-1.051,2.924v3.482l-2.924,3.548h-6.307l-.23.23v6.406l1.215,1.708-.263.624h-6.6l-3.351-3.186-.23-.723,1.183-1.741v-7.785c0-.394.1-.985-.329-1.248l-.23-.131V157.8l.23-.131c.427-.263.329-.821.329-1.248v-7.785l-1.183-1.741.23-.723Zm-4.2,9.723v-2.5h-1.183l-.23.23v3.285h.558Z" transform="translate(-310.697 -116.867)" fill="#202020"/><path d="M476.983,146.168h6.8l3.186,3.383.23.624-1.183,1.708V159.9c0,.591,0,.92.558,1.248v.526c-.558.164-.558.854-.558,1.248v3.121h.788l1.807-1.117.69.46,3.186,3.351-.854,4.533H480.826l-3.351-3.186-.23-.657.69-1.774v-7.818c0-.394.1-.985-.328-1.248l-.23-.131V157.8l.23-.131c.427-.263.328-.821.328-1.248v-7.785l-1.183-1.741Z" transform="translate(-381.181 -116.867)" fill="#202020"/><path d="M544,146.168h11.858l3.186,3.383.854,4.533-.591.394-1.741-1.084h-4.336l-.23.23v1.183l1.084-.755.69.263,3.186,3.351v5.453l-.591.23-1.413-1.051h-2.726l-.23.23v3.515h1.478l1.807-1.117.69.46,3.186,3.351-.854,4.533H547.844l-3.351-3.186-.23-.657.69-1.774v-7.818c0-.394.1-.985-.329-1.248l-.23-.131V157.8l.23-.131c.427-.263.329-.821.329-1.248v-7.785l-1.183-1.741Z" transform="translate(-434.764 -116.867)" fill="#202020"/><path d="M618.757,151.85l-.394-.3-1.183-1.183V147.35l1.183-1.183h3.022l1.183,1.183,3.186,3.318v2.891l-2.037,3.613h-2.267l-3.416-3.186Z" transform="translate(-493.458 -116.866)" fill="#202020"/><path d="M659.118,155.563l.394.2c.1.953.723,1.018,1.051,1.281l3.383,1.971,3.186,3.383.723,1.15v2.464a3.123,3.123,0,0,0,1.051,2.431l-2.464,2.923.985,1.248-.23.657H655.045l-3.351-3.186-.23-.756.92-1.248-1.347-1.642v-3.022l4.4-2.234.493.46,3.186,3.318v.854l.657-.788v-1.281l-.263-.164-1.642-1.642c-.92-.526-1.774-1.084-2.694-1.61l-3.383-3.219-.756-1.183v-1.938c0-.591.164-2.266-1.084-2.891l2.431-2.924-.92-1.248.23-.756h12.318l3.186,3.383.23.657-.985,1.248,2.135,2.529-4.763,3.745h-.657l-3.383-3.186v-.821l-.657.755Z" transform="translate(-519.661 -116.867)" fill="#202020"/><path d="M137.465,277.258h6.011l3.219,3.383,1.018,2.661v-3.581l-1.182-1.741.23-.723H153.3l3.186,3.383.263.624-1.215,1.708v7.982a1.378,1.378,0,0,0,.559,1.281v.526c-.559.23-.559.854-.559,1.281v10.315h-4.3l-3.351-3.186-.427-1.675-1.215-3.121v5.65l1.215,1.708-.263.624h-6.373l-3.351-3.186-.23-.723,1.183-1.741v-7.785c0-.394.1-.985-.329-1.248l-.23-.131v-.657l.23-.131c.427-.263.329-.821.329-1.249v-7.785l-1.183-1.741Z" transform="translate(-109.724 -221.678)" fill="#202020"/><path d="M226.112,277.258H237.97l3.186,3.383.854,4.533-.591.394-1.741-1.084H235.31l-.2.23v1.873l1.084-.789.69.263,3.186,3.351v5.453l-.591.23-1.413-1.018H235.31l-.2.23v7.752l.69,1.741-.23.559h-5.617l-3.351-3.186-.23-.657.69-1.774v-7.818c0-.394.1-.985-.329-1.248l-.23-.131v-.657l.23-.131c.427-.263.329-.821.329-1.249v-7.785l-1.183-1.741Z" transform="translate(-180.601 -221.678)" fill="#202020"/><path d="M290.934,281.956l.854-4.7h13.3l3.186,3.383.854,4.533-.591.394-1.741-1.084h-2.529l-.2.23v6.274a1.38,1.38,0,0,0,.559,1.248v.525a1.178,1.178,0,0,0-.559,1.248v8.015l1.183,1.708-.23.624h-6.635l-3.351-3.186-.23-.723,1.183-1.741v-8.015c0-.92-.263-.985-.559-1.15v-.657l.23-.131c.329-.2.361-.624.329-1.051v-2.825l-1.117.69-.559-.361Z" transform="translate(-232.612 -221.678)" fill="#202020"/><path d="M152.38,23.141H149.95l-.131.164V29.35c0,.427-.1.985.328,1.248l.23.132v.657l-.23.132c-.427.263-.328.854-.328,1.248v7.785L151,42.292l-.23.723h-6.8l-.23-.723,1.183-1.741V32.766c0-.394.1-.985-.329-1.248l-.23-.132V30.73l.23-.132c.427-.263.329-.821.329-1.248V23.306l-.132-.164h-2.464l-1.774,1.117-.69-.46.854-4.7h13.3l.854,4.7-.69.46Z" transform="translate(-111.827 -15.272)" fill="#fff"/><path d="M229.225,32.305l-.164-.164h-3.679l-.164.164V40.55l1.215,1.741-.263.723H219.4l-.23-.723,1.183-1.741V32.765c0-.394.1-.985-.328-1.248l-.23-.131v-.657l.23-.131c.427-.263.328-.821.328-1.248V21.564l-1.183-1.741.23-.723h6.767l.263.723-1.215,1.741v6.208l.164.164h3.679l.164-.164V21.564l-1.183-1.741.23-.723h6.767l.263.723-1.215,1.741v7.785c0,.427-.066.985.361,1.248l.2.131v.657l-.2.131c-.427.263-.361.854-.361,1.248V40.55l1.215,1.741-.263.723h-6.767l-.23-.723,1.183-1.741Z" transform="translate(-175.237 -15.271)" fill="#fff"/><path d="M308.841,40.583V32.765c0-.394.1-.985-.329-1.248l-.23-.132v-.657l.23-.131c.427-.263.329-.821.329-1.248V21.564l-1.183-1.741.23-.723h11.858l.854,4.7-.69.46L318.1,23.14h-4.238l-.164.164v4.533l.164.164h2.661l1.445-1.018.69.263v5.584l-.69.263-1.445-1.051h-2.661l-.164.164v6.6l.164.164h4.5l1.807-1.117.69.46-.854,4.7H308.381l-.23-.657Z" transform="translate(-245.984 -15.271)" fill="#fff"/><path d="M144.653,171.641v-7.785c0-.394.1-.985-.329-1.248l-.23-.132v-.657l.23-.131c.427-.263.329-.821.329-1.248v-7.785l-1.183-1.741.23-.723h14.618l.263.756-.953,1.248,2.431,2.924-.427.3c-.657.427-.657,1.905-.657,2.6v3.482l-2.989,3.646h-6.307l-.164.164v6.34l1.215,1.741-.263.723H143.7l-.23-.723Zm9.46-11.727V155.25l-.854-1.018h-3.581l-.164.164v6.373l.164.164h3.581Z" transform="translate(-114.709 -120.083)" fill="#fff"/><path d="M232.973,171.674v-7.818c0-.394.1-.985-.329-1.248l-.23-.131v-.657l.23-.131c.427-.263.329-.821.329-1.249v-7.785l-1.183-1.741.23-.723h11.858l.854,4.7-.69.46-1.807-1.117H238l-.164.164v4.533l.164.164h2.661l1.445-1.018.69.263v5.584l-.69.263-1.445-1.051H238l-.164.164v6.6l.164.164h4.5l1.807-1.117.69.46-.854,4.7H232.513l-.23-.657Z" transform="translate(-185.324 -120.083)" fill="#fff"/><path d="M317.555,172.1l.953,1.248-.263.756H304.974l-.263-.756.953-1.248-2.431-2.924.46-.3c.657-.427.624-1.905.624-2.6V163.3a.786.786,0,0,0-.329-.69l-.23-.131v-.657l.23-.131a.786.786,0,0,0,.329-.69v-2.989c0-.69.033-2.168-.624-2.6l-.46-.3,2.431-2.924-.953-1.248.263-.756h13.271l.263.756-.953,1.248,2.431,2.924-.427.3c-.657.427-.657,1.905-.657,2.6V161a.743.743,0,0,0,.361.69l.2.131v.657l-.2.131a.743.743,0,0,0-.361.69v2.989c0,.69,0,2.168.657,2.6l.427.3ZM314.04,155.25l-.854-1.018h-3.121l-.887,1.018v5.716a.872.872,0,0,0,.361.723l.2.131v.657l-.2.131a.872.872,0,0,0-.361.723v5.716l.887,1.018h3.121l.854-1.018v-5.716a.846.846,0,0,0-.329-.723l-.23-.131v-.657l.23-.131a.846.846,0,0,0,.329-.723Z" transform="translate(-242.446 -120.083)" fill="#fff"/><path d="M396.015,171.641v-7.785c0-.394.1-.985-.329-1.248l-.23-.132v-.657l.23-.131c.427-.263.329-.821.329-1.248v-7.785l-1.183-1.741.23-.723H409.68l.263.756-.953,1.248,2.431,2.924-.427.3c-.657.427-.657,1.905-.657,2.6v3.482l-2.989,3.646H401.04l-.164.164v6.34l1.215,1.741-.263.723h-6.767l-.23-.723Zm9.461-11.727V155.25l-.854-1.018H401.04l-.164.164v6.373l.164.164h3.581Z" transform="translate(-315.682 -120.083)" fill="#fff"/><path d="M484.172,152.655l-1.183-1.741.23-.723h6.8l.23.723-1.183,1.741v7.785c0,.427-.1.985.329,1.249l.23.131v.657l-.23.131c-.427.263-.329.854-.329,1.248V169.9l.132.164h3.843l1.807-1.117.69.46-.854,4.7H483.712l-.23-.657.69-1.774v-7.818c0-.394.1-.985-.329-1.248l-.23-.131v-.657l.23-.131c.427-.263.329-.821.329-1.249Z" transform="translate(-386.167 -120.083)" fill="#fff"/><path d="M551.19,171.674v-7.818c0-.394.1-.985-.329-1.248l-.23-.131v-.657l.23-.131c.427-.263.329-.821.329-1.249v-7.785l-1.182-1.741.23-.723H562.1l.854,4.7-.69.46-1.807-1.117h-4.238l-.164.164v4.533l.164.164h2.661l1.445-1.018.69.263v5.584l-.69.263-1.445-1.051h-2.661l-.164.164v6.6l.164.164h4.5l1.807-1.117.69.46-.854,4.7H550.73l-.23-.657Z" transform="translate(-439.75 -120.083)" fill="#fff"/><path d="M625.092,155.577H624.6l-1.182-1.183v-3.022l1.182-1.183h3.022l1.183,1.183v2.956l-2.07,3.679h-2.464Z" transform="translate(-498.444 -120.082)" fill="#fff"/><path d="M669.525,172.1l.953,1.248-.23.756H657.929l-.23-.756.92-1.248-1.347-1.642v-3.022l4.4-2.234.493.46v3.383l.854,1.018h2.135l.854-1.018v-2.891l-.3-.493-1.84-1.084a.688.688,0,0,0-.361-.131.528.528,0,0,0-.3.1l-.23.131-.624-.3v-.3a.7.7,0,0,0-.394-.624l-3.942-2.332-.755-1.183v-1.938c0-.69.033-2.168-.624-2.6l-.46-.3,2.431-2.924-.92-1.248.23-.756h12.318l.23.756-.953,1.248,2.135,2.529-4.862,3.843h-.788V155.25l-.854-1.018h-2.135l-.854,1.018v2.792l.263.46,1.774,1.084a1.01,1.01,0,0,0,.427.1.967.967,0,0,0,.328-.066l.2-.131.591.3.033.263a.7.7,0,0,0,.3.591l4.106,2.4.723,1.183v2.069c0,.69-.033,2.168.624,2.6l.46.3Z" transform="translate(-524.646 -120.083)" fill="#fff"/><path d="M144.653,283.745,143.47,282l.23-.723h6.011l4.238,11v-8.541L152.766,282l.23-.723h6.537l.263.723-1.215,1.741v7.785c0,.427-.066.985.328,1.248l.23.131v.657l-.23.132c-.394.263-.328.854-.328,1.248V305.2h-4.468l-.427-1.675-4.4-11.366v10.577l1.215,1.741-.263.723H143.7l-.23-.723,1.183-1.741v-7.785c0-.394.1-.985-.329-1.248l-.23-.132v-.657l.23-.131c.427-.263.329-.821.329-1.248Z" transform="translate(-114.709 -224.894)" fill="#fff"/><path d="M242.563,285.321h-4.27l-.131.164v5.256l.131.131h2.694l1.445-1.051.69.263v5.584l-.69.263-1.445-1.018h-2.694l-.131.164v7.687l.69,1.774-.23.657H232.84l-.23-.657.69-1.774v-7.818c0-.394.1-.985-.329-1.248l-.23-.132v-.657l.23-.132c.427-.263.329-.821.329-1.248v-7.785L232.117,282l.23-.723h11.858l.854,4.7-.69.46Z" transform="translate(-185.586 -224.894)" fill="#fff"/><path d="M309.685,285.321h-2.431l-.131.164v6.044c0,.427-.1.985.328,1.248l.23.132v.657l-.23.132c-.427.263-.328.854-.328,1.248v7.785l1.183,1.741-.23.723h-6.8l-.23-.723,1.183-1.741v-7.785c0-.394.1-.985-.329-1.248l-.23-.132v-.657l.23-.132c.427-.263.329-.821.329-1.248v-6.044l-.132-.164h-2.464l-1.774,1.117-.69-.46.854-4.7h13.3l.854,4.7-.69.46Z" transform="translate(-237.598 -224.894)" fill="#fff"/></g></svg>
